<svg xmlns="http://www.w3.org/2000/svg" xmlns:xlink="http://www.w3.org/1999/xlink" version="1.1" id="Layer_1" x="0px" y="0px" width="13.367px" height="10.793px" viewBox="0 0 13.367 10.793" enable-background="new 0 0 13.367 10.793" xml:space="preserve">
<g>
	<path d="M6.611,3.533C6.152,3.14,5.618,2.892,5.064,2.785C4.513,1.96,3.522,1.203,2.782,1.203c-0.823,0-1.527,0.508-1.817,1.227   L0,2.962l0.838,0.449C0.896,3.859,1.104,4.259,1.411,4.56C0.712,5.921,1.009,7.633,2.223,8.669   c1.419,1.212,3.551,1.044,4.763-0.374C8.198,6.877,17.661,12.972,6.611,3.533z"/>
	<path d="M13.371,10.626l-1.192-1.618c-0.199,0.681-3.181-0.51-3.975-0.738c-0.796-0.227-1.165,0.2-1.165,0.2   c0.937-0.114,4.144,1.448,4.144,1.448C13.738,11.307,13.371,10.626,13.371,10.626z"/>
</g>
</svg>