<?xml version="1.0" encoding="UTF-8" standalone="no"?>
<!-- Created with Inkscape (http://www.inkscape.org/) -->
<svg
   xmlns:dc="http://purl.org/dc/elements/1.1/"
   xmlns:cc="http://creativecommons.org/ns#"
   xmlns:rdf="http://www.w3.org/1999/02/22-rdf-syntax-ns#"
   xmlns:svg="http://www.w3.org/2000/svg"
   xmlns="http://www.w3.org/2000/svg"
   xmlns:sodipodi="http://sodipodi.sourceforge.net/DTD/sodipodi-0.dtd"
   xmlns:inkscape="http://www.inkscape.org/namespaces/inkscape"
   width="744.09448819"
   height="1052.3622047"
   id="svg2"
   sodipodi:version="0.32"
   inkscape:version="0.46+pre4"
   sodipodi:docname="flying bird.svg"
   inkscape:output_extension="org.inkscape.output.svg.inkscape">
  <defs
     id="defs4">
    <inkscape:perspective
       sodipodi:type="inkscape:persp3d"
       inkscape:vp_x="0 : 526.18109 : 1"
       inkscape:vp_y="0 : 1000 : 0"
       inkscape:vp_z="744.09448 : 526.18109 : 1"
       inkscape:persp3d-origin="372.04724 : 350.78739 : 1"
       id="perspective10" />
    <inkscape:perspective
       id="perspective2390"
       inkscape:persp3d-origin="372.04724 : 350.78739 : 1"
       inkscape:vp_z="744.09448 : 526.18109 : 1"
       inkscape:vp_y="0 : 1000 : 0"
       inkscape:vp_x="0 : 526.18109 : 1"
       sodipodi:type="inkscape:persp3d" />
  </defs>
  <sodipodi:namedview
     id="base"
     pagecolor="#ffffff"
     bordercolor="#666666"
     borderopacity="1.0"
     gridtolerance="10000"
     guidetolerance="10"
     objecttolerance="10"
     inkscape:pageopacity="0.0"
     inkscape:pageshadow="2"
     inkscape:zoom="0.35"
     inkscape:cx="-23.571429"
     inkscape:cy="520"
     inkscape:document-units="px"
     inkscape:current-layer="layer1"
     showgrid="false"
     inkscape:window-width="1280"
     inkscape:window-height="975"
     inkscape:window-x="-4"
     inkscape:window-y="-4" />
  <metadata
     id="metadata7">
    <rdf:RDF>
      <cc:Work
         rdf:about="">
        <dc:format>image/svg+xml</dc:format>
        <dc:type
           rdf:resource="http://purl.org/dc/dcmitype/StillImage" />
        <dc:title>Flying bird</dc:title>
        <dc:subject>
          <rdf:Bag>
            <rdf:li>Flying bird animal silhouette</rdf:li>
          </rdf:Bag>
        </dc:subject>
      </cc:Work>
    </rdf:RDF>
  </metadata>
  <g
     inkscape:label="Layer 1"
     inkscape:groupmode="layer"
     id="layer1">
    <path
       style="fill:#000000"
       d="M 335.6927,633.38325 C 320.80425,622.69885 309.17791,613.73263 301.90418,607.32555 C 299.13624,604.88741 296.31433,602.89209 295.63326,602.8915 C 294.9522,602.89091 291.26853,600.5307 287.44732,597.64659 C 283.62612,594.76248 275.99635,590.1562 270.49227,587.4104 C 264.9882,584.6646 257.62085,580.12692 254.12039,577.32666 C 240.93901,566.78194 219.18551,547.34219 211.77978,539.48944 C 207.55456,535.00921 202.22942,529.4837 199.94613,527.21053 C 191.14586,518.44934 177.28174,501.91022 164.7429,485.21505 C 144.69253,458.51848 135.23866,437.2809 135.20714,418.86464 C 135.18694,407.0601 158.60293,369.44126 173.20966,357.81186 C 182.99393,350.02196 191.1365,341.91986 191.1365,339.97413 C 191.1365,339.0048 191.72885,338.21171 192.45283,338.21171 C 193.17681,338.21171 194.40872,337.01664 195.19044,335.556 C 196.4511,333.20043 195.10731,331.85327 183.30061,323.6363 C 152.38292,302.11889 123.31334,274.73737 115.99431,260.23845 C 113.39647,255.09215 106.90291,247.21361 96.693863,236.82153 L 81.308476,221.16028 L 75.280077,222.04334 C 71.964443,222.52901 69.012389,223.64777 68.719946,224.52947 C 68.427503,225.41116 71.281218,229.54793 75.061539,233.72228 C 78.841847,237.89664 83.739723,244.88749 85.945703,249.25751 C 90.322013,257.92693 92.683403,267.2669 90.498953,267.2669 C 89.758863,267.2669 88.762933,265.3149 88.285793,262.92915 C 87.808633,260.54339 85.648813,255.78531 83.486183,252.35565 C 81.323551,248.92598 79.10628,244.58502 78.558914,242.70908 C 77.489817,239.04499 75.366602,235.88476 73.978717,235.89181 C 73.507821,235.8942 73.106723,238.64207 73.087391,241.99818 C 73.068072,245.35431 72.294746,248.85773 71.368889,249.78357 C 70.033967,251.11851 69.867833,250.13697 70.566244,245.04152 C 71.602147,237.48373 70.674926,236.97055 66.968128,243.05016 C 64.026442,247.87487 63.245831,245.53953 65.669456,239.16492 C 66.572488,236.78975 66.611071,234.96972 65.776078,234.13473 C 65.056452,233.4151 64.748305,232.09495 65.091324,231.20108 C 65.434342,230.3072 64.46544,228.44502 62.93823,227.06291 C 59.032555,223.52833 59.455645,221.15887 64.944236,215.82841 C 68.622834,212.25581 69.541269,210.44335 68.922439,207.97776 C 68.357486,205.7268 68.849571,204.36259 70.574662,203.39718 C 72.736773,202.1872 72.813053,201.6142 71.210668,198.62011 C 69.097277,194.6712 70.119264,192.22911 73.88522,192.22911 C 76.859103,192.22911 76.83576,192.36148 75.280882,184.31909 L 74.147252,178.45557 L 82.672622,171.35802 C 92.908673,162.83631 94.802543,159.92687 97.061733,149.25293 C 98.823113,140.93088 101.13231,136.22196 101.04256,141.1352 C 100.95933,145.69173 97.473733,158.75301 94.885353,164.20763 C 93.525523,167.07323 89.116963,172.79377 85.088523,176.91994 C 78.501653,183.66663 77.857747,184.84853 78.6942,188.6569 L 79.624328,192.89171 L 81.757461,189.49068 C 82.930683,187.62011 87.381403,182.64827 91.647943,178.44215 C 101.69687,168.53554 102.76711,166.74044 107.83043,151.29941 C 113.49679,134.01933 113.33278,134.43547 114.15337,135.25606 C 114.94312,136.04581 108.68807,159.02833 105.85826,165.73424 C 104.8829,168.04555 100.0346,174.70256 95.084253,180.52761 C 90.133903,186.35264 86.083603,191.67543 86.083603,192.35601 C 86.083603,193.0366 87.934463,193.59344 90.196603,193.59344 C 95.479343,193.59344 102.38468,187.24491 108.00438,177.22156 C 111.20745,171.50852 112.00541,170.69455 111.34808,173.81075 C 110.87322,176.06188 108.21768,181.28042 105.44686,185.4075 C 99.061083,194.91897 99.046343,194.95776 101.81836,194.95776 C 103.09376,194.95776 107.73476,191.62712 112.1317,187.55632 C 116.52864,183.48553 121.37618,179.75813 122.90399,179.27323 C 125.54102,178.43627 140.65654,156.95161 140.65654,154.04039 C 140.65654,153.28323 141.27048,152.66374 142.02086,152.66374 C 142.77124,152.66374 143.38518,153.0012 143.38518,153.41365 C 143.38518,156.69642 127.46661,180.7268 122.71283,184.62028 C 120.95102,186.06326 116.45034,189.90042 112.71135,193.1473 C 106.89071,198.20185 105.02696,199.05769 99.750283,199.09908 C 96.360683,199.12567 92.052523,200.02483 90.176573,201.09721 C 88.300633,202.1696 84.954633,203.06877 82.741015,203.09536 C 76.111441,203.17498 80.386793,205.61236 93.945293,209.48289 L 106.38678,213.03455 L 117.87651,208.22485 C 135.15177,200.99329 142.1947,199.89898 159.48229,201.76028 C 167.50235,202.62377 177.53403,204.13971 181.77491,205.12904 C 193.20698,207.79596 220.11005,218.49603 250.21491,232.34948 C 260.28439,236.98319 261.07266,237.13793 264.79686,235.21206 C 266.96224,234.09231 274.81589,227.49326 282.24944,220.54748 C 289.68299,213.60173 303.07433,202.70469 312.00799,196.33184 C 345.89801,172.15631 350.08365,171.02264 404.6531,171.2389 C 452.64124,171.42909 460.88818,172.30553 524.71355,183.99816 C 536.7196,186.19764 554.52402,188.96764 564.27893,190.15373 C 574.03384,191.33983 584.6244,192.63659 587.81351,193.03544 C 591.41322,193.48565 593.61188,194.45894 593.61188,195.60224 C 593.61188,198.0727 586.06511,204.29561 581.75815,205.37659 C 575.85693,206.8577 549.87625,204.84486 536.99246,201.90839 C 522.46239,198.5967 517.06311,198.31421 523.69031,201.21242 C 526.42645,202.40898 528.12436,204.13094 528.12436,205.7092 C 528.12436,210.31836 525.36361,211.12656 513.79897,209.90295 C 507.79595,209.26779 501.04254,208.76531 498.79141,208.78634 C 495.10204,208.82078 495.43837,209.17071 502.20222,212.33491 C 506.3293,214.26562 513.38616,217.2156 517.88413,218.89043 C 527.56507,222.49517 532.37886,227.62989 529.41986,231.19526 C 526.73962,234.42475 518.14371,232.93898 505.37407,227.03904 C 499.66631,224.40189 494.77581,222.24423 494.5063,222.24423 C 494.2368,222.24423 494.01628,224.02038 494.01628,226.19123 C 494.01628,233.61557 483.36705,233.9864 470.23434,227.01936 C 465.28378,224.39303 460.75749,222.24423 460.1759,222.24423 C 459.59431,222.24423 459.14267,223.93258 459.17225,225.99611 C 459.22088,229.38784 458.7125,229.78998 453.87655,230.18535 C 450.93433,230.4259 445.90602,229.62171 442.70254,228.39829 C 437.09604,226.25715 436.77282,226.27908 434.06771,228.98419 C 432.52204,230.52986 431.25741,233.03773 431.25741,234.55724 C 431.25741,236.53551 430.09521,237.55244 427.16444,238.13859 C 422.29903,239.11168 422.29174,239.14634 425.891,244.20105 C 427.54366,246.52199 428.53178,249.71464 428.27857,251.91543 C 427.88837,255.30707 427.34824,255.65477 422.69281,255.5112 C 417.73584,255.35832 417.61179,255.46329 419.44417,258.25985 C 422.42411,262.80784 423.55171,269.81946 421.66815,272.08901 C 420.37047,273.65261 420.48894,275.05163 422.22964,278.71986 C 425.17895,284.93507 425.00915,288.52271 421.60456,291.9273 C 419.26384,294.26801 417.78649,294.59875 413.07754,293.8363 L 407.38175,292.91407 L 413.18012,298.90157 C 419.28934,305.21005 420.37424,309.33459 416.85108,312.85775 C 414.92407,314.78476 415.21325,315.19879 419.92081,317.25288 C 443.14364,327.38586 472.98094,343.25385 494.01628,356.65812 C 509.01364,366.21484 528.25296,377.78719 534.12942,380.78599 C 544.75265,386.20708 613.69798,410.52085 618.44707,410.52085 C 619.37774,410.52085 624.14717,411.71515 629.0458,413.17484 C 633.94442,414.63454 644.60759,417.72193 652.74171,420.03572 C 668.02923,424.38432 680.92858,430.03031 680.92858,432.37301 C 680.92858,434.7251 673.48415,433.83124 656.85914,429.48291 C 624.19094,420.93845 575.65147,416.07326 563.90975,420.16645 C 558.67224,421.99224 557.63187,424.60174 559.6492,430.85284 C 561.3731,436.1947 573.62463,455.5029 578.79659,461.02882 C 580.5668,462.92017 586.31275,469.333 591.5654,475.27958 C 596.81804,481.22616 611.86507,497.48311 625.00323,511.40614 C 651.27617,539.24863 656.037,545.10402 654.03202,547.109 C 651.21647,549.92455 645.41648,545.18541 626.88919,524.93069 C 580.98117,474.74234 540.95468,438.89207 503.18167,414.13037 C 496.59178,409.81043 488.62896,405.36881 485.48652,404.26009 C 477.31603,401.37737 458.50837,398.2869 444.21848,397.47894 C 395.46114,394.72214 369.97951,391.19967 347.41518,384.09727 C 340.0531,381.77997 338.53511,382.05533 341.17,385.23018 C 342.15989,386.42292 342.51841,388.73699 342.02059,390.72043 C 340.98541,394.84491 337.43018,395.14675 325.74243,392.10248 C 321.42108,390.97691 317.63697,390.056 317.3333,390.056 C 317.02963,390.056 317.80163,391.83405 319.04887,394.00724 C 321.02535,397.45106 321.06606,398.26033 319.36595,400.30883 C 317.78694,402.21143 315.97833,402.51264 309.87209,401.88993 C 305.72332,401.46684 300.79399,400.77406 298.91804,400.35044 C 297.0421,399.92681 293.05145,399.24976 290.04994,398.84588 L 284.59265,398.11155 L 290.04994,401.06774 C 298.07017,405.41226 300.28237,407.77558 300.28237,411.99917 C 300.28237,417.35129 296.9696,420.07111 290.45066,420.07111 L 284.90683,420.07111 L 288.49812,422.89601 C 293.38683,426.74149 291.33538,430.45096 283.18499,432.50325 C 276.40151,434.21135 276.47341,434.13019 278.65278,437.61991 C 280.7929,441.04679 279.06361,446.97996 275.60472,448.07777 L 272.76257,448.97984 L 275.79514,452.20784 C 278.17943,454.74581 278.66082,456.46415 278.04708,460.24623 C 277.32977,464.66647 277.75875,465.46 283.33633,470.03042 C 290.42333,475.83769 292.40038,480.96456 288.61905,483.72953 C 287.11897,484.82642 286.62473,486.01198 287.39463,486.66666 C 288.10468,487.27047 292.42455,490.92749 296.99433,494.79336 C 301.59264,498.68336 306.77139,504.62535 308.59108,508.0992 C 311.65226,513.94309 311.71871,514.49528 309.55413,516.10284 C 307.46017,517.65795 308.03627,518.6282 315.35251,525.86811 C 319.82035,530.28932 323.47586,534.61817 323.47586,535.48775 C 323.47586,536.35732 324.39678,537.8331 325.52235,538.76724 C 327.52171,540.42657 328.41792,545.58885 326.70662,545.58885 C 326.23241,545.58885 323.62314,544.25768 320.90825,542.63069 L 315.97209,539.67252 L 320.06506,544.27635 C 322.31619,546.80845 327.99591,552.8977 332.68666,557.80802 C 338.35722,563.744 341.50065,568.25594 342.0668,571.27183 C 343.21462,577.38628 341.09999,579.39439 336.13287,576.90684 C 334.04897,575.86323 331.84432,574.77195 331.23365,574.48178 C 330.62298,574.19162 332.46482,577.06454 335.32662,580.86607 C 343.66693,591.94506 347.58305,604.25476 342.76731,604.25476 C 342.07484,604.25476 336.42427,599.9606 330.21049,594.7122 C 323.99671,589.4638 318.63378,585.44857 318.29287,585.78949 C 317.51464,586.56771 328.35344,599.60101 331.76751,601.99233 C 336.32952,605.18768 342.57639,614.11126 342.57639,617.43267 C 342.57639,619.22153 344.14974,623.06262 346.07271,625.96844 C 348.72657,629.97869 349.46625,632.63452 349.14244,636.9904 L 348.71585,642.72906 L 335.6927,633.38325 z M 141.17606,247.41606 C 142.28029,244.5385 136.72786,241.16083 133.62398,242.82196 C 130.3424,244.57821 130.44329,246.18296 133.99155,248.66825 C 137.15267,250.88238 140.03895,250.37934 141.17606,247.41606 z M 117.46304,244.18804 C 117.46304,241.74653 92.188193,223.8708 90.758103,225.30088 C 90.350203,225.70879 95.311533,230.40645 101.7833,235.74013 C 112.6718,244.71385 117.46304,247.29528 117.46304,244.18804 z M 81.833877,199.87898 C 85.702103,197.73484 84.138003,196.28998 79.009891,197.27027 C 76.600592,197.73084 75.610789,198.61446 76.093909,199.87344 C 76.982957,202.19028 77.662895,202.19094 81.833877,199.87898 z"
       id="path2396" />
  </g>
</svg>
