<?xml version="1.0" encoding="UTF-8" standalone="no"?><!DOCTYPE svg PUBLIC "-//W3C//DTD SVG 1.1//EN" "http://www.w3.org/Graphics/SVG/1.1/DTD/svg11.dtd"><svg width="100%" height="100%" viewBox="0 0 1129 271" version="1.1" xmlns="http://www.w3.org/2000/svg" xmlns:xlink="http://www.w3.org/1999/xlink" xml:space="preserve" style="fill-rule:evenodd;clip-rule:evenodd;stroke-linejoin:round;stroke-miterlimit:1.41421;"><g id="Particular-bw"><path d="M377.426,158.47l0,-93.839c0,-13.606 4.223,-24.867 13.138,-33.782c8.915,-8.445 19.237,-12.668 31.436,-12.668c11.73,0 21.583,3.754 30.028,10.792c9.853,8.445 15.014,19.706 15.014,33.312c0,12.669 -4.222,23.46 -12.199,31.906c-7.507,7.976 -15.483,11.729 -24.867,11.729l-26.275,0l0,-17.36l20.176,0c9.383,0 15.952,-3.284 20.644,-10.322c2.815,-4.692 4.692,-9.853 4.692,-15.953c0,-6.568 -1.408,-12.199 -4.692,-16.891c-4.692,-6.568 -11.73,-9.853 -21.583,-9.853c-9.853,0 -16.891,3.285 -21.113,10.323c-3.285,5.161 -4.692,11.73 -4.692,18.767l0,93.37l-19.707,0l0,0.469Z" style="fill:#1a171b;fill-rule:nonzero;"/><path d="M553.843,158.47l0,-54.426c0,-7.507 -2.815,-13.607 -8.445,-18.299c-5.631,-4.692 -13.138,-7.038 -22.522,-7.038c-7.507,0 -14.075,2.346 -19.706,6.569c-7.507,5.63 -11.26,14.076 -11.26,25.336c0,10.323 3.284,18.299 9.384,24.868c6.099,5.63 13.137,8.445 21.113,8.445c8.915,0 17.36,-4.223 24.398,-13.137l0,20.644c-5.161,3.285 -8.445,5.161 -10.322,6.1c-4.223,1.877 -9.384,2.815 -15.483,2.815c-12.199,0 -22.991,-4.223 -31.905,-13.138c-9.854,-9.383 -14.545,-21.582 -14.545,-36.597c0,-14.075 4.222,-25.336 12.199,-33.782c8.914,-9.383 21.582,-14.545 37.066,-14.545c14.545,0 26.744,4.223 35.189,13.138c7.977,7.976 12.199,17.829 12.199,30.028l0,53.019l-17.36,0Z" style="fill:#1a171b;fill-rule:nonzero;"/><path d="M590.44,63.693l16.422,0l0,11.261c2.346,-3.754 5.63,-6.569 8.915,-8.915c4.223,-2.815 9.384,-3.754 15.483,-3.754l5.161,0l0,16.422l-3.753,0c-8.915,0 -15.484,3.754 -20.176,11.261c-3.284,5.63 -4.692,11.73 -4.692,19.237l0,49.734l-17.36,0l0,-95.246Z" style="fill:#1a171b;fill-rule:nonzero;"/><path d="M651.905,128.911l0,-88.678l16.891,0l0,23.929l33.782,0l0,16.422l-33.782,0l0,51.611c0,2.815 0.938,4.692 3.284,6.569c1.877,1.877 5.161,2.815 9.384,2.815l21.583,0l0,16.422l-22.052,0c-10.323,0 -17.83,-2.815 -22.522,-8.915c-4.692,-4.692 -6.568,-11.73 -6.568,-20.175Z" style="fill:#1a171b;fill-rule:nonzero;"/><path d="M718.061,42.11c0,-2.815 0.938,-5.161 3.284,-7.038c2.346,-1.877 4.692,-2.815 7.507,-2.815c2.816,0 5.162,0.938 7.038,2.815c1.877,1.877 3.285,4.223 3.285,7.507c0,3.285 -0.939,5.631 -2.815,7.507c-1.877,1.877 -4.223,2.816 -7.038,2.816c-2.816,0 -5.161,-0.939 -7.507,-2.816c-2.816,-1.876 -3.754,-4.222 -3.754,-7.976Zm1.877,116.36l0,-94.308l17.36,0l0,94.308l-17.36,0Z" style="fill:#1a171b;fill-rule:nonzero;"/><path d="M753.251,111.551c0,-12.668 4.222,-23.929 12.199,-32.844c8.914,-9.853 20.175,-14.545 34.72,-14.545l17.36,0l0,16.422l-15.014,0c-7.038,0 -13.138,2.346 -19.237,7.038c-7.507,6.099 -11.261,14.076 -11.261,24.398c0,7.507 2.346,14.076 7.507,19.706c6.1,7.038 14.076,10.322 23.929,10.322l14.076,0l0,16.422l-17.36,0c-14.545,0 -26.744,-5.161 -35.19,-15.952c-7.507,-9.384 -11.729,-19.707 -11.729,-30.967Z" style="fill:#1a171b;fill-rule:nonzero;"/><path d="M834.421,63.693l17.36,0l0,56.772c0,6.569 2.346,12.199 7.038,16.422c4.692,4.223 9.853,6.569 15.953,6.569c6.568,0 12.199,-2.346 16.891,-7.038c4.222,-4.692 6.568,-9.853 6.568,-15.953l0,-56.772l17.36,0l0,55.834c0,11.261 -3.753,21.114 -11.729,28.621c-7.977,7.507 -17.361,11.73 -29.09,11.73c-10.792,0 -20.176,-3.285 -27.214,-9.853c-8.445,-7.507 -12.668,-18.768 -12.668,-32.844l0,-53.488l-0.469,0Z" style="fill:#1a171b;fill-rule:nonzero;"/><rect x="932.952" y="20.527" width="17.36" height="137.943" style="fill:#1a171b;fill-rule:nonzero;"/><path d="M1045.56,158.47l0,-54.426c0,-7.507 -2.815,-13.607 -8.445,-18.299c-5.631,-4.692 -13.138,-7.038 -22.522,-7.038c-7.507,0 -14.075,2.346 -19.706,6.569c-7.507,5.63 -11.26,14.076 -11.26,25.336c0,10.323 3.284,18.299 9.383,24.868c6.1,5.63 13.138,8.445 21.114,8.445c8.915,0 17.36,-4.223 24.398,-13.137l0,20.644c-5.161,3.285 -8.445,5.161 -10.322,6.1c-4.223,1.877 -9.384,2.815 -15.483,2.815c-12.199,0 -22.991,-4.223 -31.906,-13.138c-9.853,-9.383 -15.014,-21.582 -15.014,-36.597c0,-14.075 4.223,-25.336 12.199,-33.782c8.915,-9.383 21.583,-14.545 37.067,-14.545c15.014,0 26.744,4.223 35.189,13.138c7.976,7.976 12.199,17.829 12.199,30.028l0,53.019l-16.891,0Z" style="fill:#1a171b;fill-rule:nonzero;"/><path d="M1082.15,63.693l16.422,0l0,11.261c2.346,-3.754 5.63,-6.569 8.915,-8.915c4.222,-2.815 9.384,-3.754 15.483,-3.754l5.161,0l0,16.422l-4.223,0c-8.914,0 -15.483,3.754 -20.175,11.261c-3.284,5.63 -4.692,11.73 -4.692,19.237l0,49.734l-17.36,0l0,-95.246l0.469,0Z" style="fill:#1a171b;fill-rule:nonzero;"/><path d="M247.46,37.887c-24.867,-22.521 -53.019,-32.843 -66.156,-35.658c-4.223,-0.939 -7.508,-1.408 -9.384,-1.877c-2.346,-0.469 -4.223,-0.469 -4.692,0c0.938,0.938 4.222,2.815 8.445,4.692c8.446,4.223 28.152,14.076 43.635,29.559c10.792,10.791 20.645,25.806 23.46,39.412c0.938,3.285 0.938,6.569 0.938,9.384c-0.469,14.076 -14.545,22.521 -37.066,23.46c-6.569,0.469 -9.853,5.161 -9.853,12.668c1.407,16.891 15.952,42.227 37.066,51.611c7.976,3.285 15.484,4.223 22.991,3.285c19.706,-2.815 35.189,-21.583 35.658,-46.92c0,-3.753 -0.469,-7.507 -0.938,-11.729c-4.223,-27.214 -23.929,-59.119 -44.104,-77.887Z" style="fill:#00729c;fill-rule:nonzero;"/><path d="M17.555,171.608c3.284,-0.47 5.63,-7.508 8.915,-18.299c4.222,-14.545 10.322,-44.104 30.497,-69.441c14.076,-17.829 38.474,-34.251 66.157,-37.535c0.469,0 0.938,0 1.407,0c20.645,-1.408 45.981,7.976 65.218,24.867c4.223,3.754 8.915,5.63 13.607,6.1c10.791,0.469 19.237,-7.507 17.829,-18.768c-0.469,-2.815 -1.877,-6.1 -4.223,-9.384c-14.545,-21.583 -60.057,-42.697 -98.53,-40.351c-0.47,0 -0.939,0 -1.408,0c-43.166,3.285 -83.516,31.906 -100.877,59.119c-8.445,13.606 -13.137,27.213 -15.014,39.881c-2.815,19.706 0,37.067 4.223,46.92c4.692,12.668 8.915,17.829 12.199,16.891Z" style="fill:#00729c;fill-rule:nonzero;"/><path d="M95.441,218.058c40.82,49.265 106.976,60.526 144.512,46.919c0.469,0 1.407,-0.469 1.876,-0.469c32.375,-12.668 49.735,-40.82 54.427,-55.365c1.877,-6.099 2.815,-10.322 3.284,-13.137c0,-3.754 -1.407,-4.692 -4.222,-3.754c-0.939,0.469 -2.346,0.469 -3.285,1.408c-4.223,1.876 -11.73,6.568 -22.052,9.384c-5.63,1.407 -12.199,2.345 -19.237,1.876c-19.706,-0.938 -47.388,-11.73 -68.502,-36.597c-12.199,-14.076 -18.299,-33.782 -18.299,-53.019c-0.469,-7.976 0.47,-15.952 2.816,-23.459c0,-0.47 0.469,-1.408 0.469,-1.877c-1.877,-11.73 -24.398,-21.583 -45.981,-19.237c-9.384,0.938 -19.237,4.223 -27.213,10.322c-15.484,11.73 -24.399,31.436 -26.275,54.427c-1.877,26.744 7.507,58.18 27.682,82.578Z" style="fill:#00729c;fill-rule:nonzero;"/><g><path d="M828.931,208.173c-0.256,0.427 -0.527,0.747 -0.811,0.961c-0.285,0.213 -0.655,0.32 -1.111,0.32c-0.484,0 -1.047,-0.242 -1.688,-0.726c-0.641,-0.484 -1.453,-1.018 -2.435,-1.602c-0.983,-0.584 -2.165,-1.118 -3.546,-1.602c-1.382,-0.485 -3.055,-0.727 -5.021,-0.727c-1.851,0 -3.489,0.249 -4.913,0.748c-1.424,0.498 -2.613,1.175 -3.568,2.029c-0.954,0.855 -1.673,1.859 -2.157,3.013c-0.484,1.153 -0.727,2.399 -0.727,3.738c0,1.709 0.421,3.126 1.261,4.251c0.84,1.125 1.951,2.087 3.332,2.884c1.382,0.798 2.948,1.488 4.7,2.072c1.752,0.584 3.546,1.189 5.384,1.816c1.837,0.627 3.631,1.332 5.383,2.115c1.752,0.783 3.318,1.773 4.7,2.969c1.381,1.197 2.492,2.664 3.332,4.401c0.841,1.738 1.261,3.874 1.261,6.409c0,2.677 -0.456,5.191 -1.367,7.541c-0.912,2.35 -2.244,4.393 -3.995,6.131c-1.752,1.737 -3.903,3.105 -6.452,4.102c-2.549,0.996 -5.447,1.495 -8.694,1.495c-3.96,0 -7.57,-0.719 -10.831,-2.158c-3.262,-1.438 -6.046,-3.382 -8.353,-5.832l2.393,-3.93c0.227,-0.314 0.505,-0.577 0.833,-0.791c0.327,-0.213 0.69,-0.32 1.089,-0.32c0.598,0 1.282,0.32 2.051,0.961c0.769,0.641 1.73,1.346 2.884,2.115c1.154,0.769 2.549,1.474 4.187,2.115c1.638,0.641 3.639,0.961 6.003,0.961c1.965,0 3.717,-0.27 5.255,-0.812c1.538,-0.541 2.841,-1.303 3.91,-2.285c1.068,-0.983 1.887,-2.158 2.456,-3.525c0.57,-1.367 0.855,-2.891 0.855,-4.572c0,-1.851 -0.42,-3.368 -1.261,-4.55c-0.84,-1.182 -1.944,-2.172 -3.311,-2.969c-1.367,-0.798 -2.927,-1.474 -4.678,-2.03c-1.752,-0.555 -3.546,-1.125 -5.384,-1.709c-1.837,-0.584 -3.631,-1.26 -5.383,-2.029c-1.752,-0.769 -3.311,-1.766 -4.678,-2.991c-1.368,-1.225 -2.471,-2.756 -3.312,-4.593c-0.84,-1.837 -1.26,-4.109 -1.26,-6.815c0,-2.165 0.42,-4.258 1.26,-6.28c0.841,-2.023 2.058,-3.817 3.653,-5.384c1.595,-1.566 3.568,-2.82 5.918,-3.76c2.35,-0.94 5.048,-1.41 8.096,-1.41c3.418,0 6.537,0.542 9.357,1.624c2.82,1.082 5.284,2.649 7.392,4.7l-2.009,3.931Z" style="fill:#00729c;fill-rule:nonzero;"/><path d="M859.181,215.863c3.162,0 6.017,0.527 8.566,1.581c2.55,1.054 4.714,2.549 6.495,4.486c1.78,1.937 3.147,4.28 4.101,7.028c0.954,2.749 1.431,5.818 1.431,9.208c0,3.418 -0.477,6.494 -1.431,9.228c-0.954,2.735 -2.321,5.07 -4.101,7.007c-1.781,1.937 -3.945,3.425 -6.495,4.465c-2.549,1.04 -5.404,1.559 -8.566,1.559c-3.162,0 -6.017,-0.519 -8.567,-1.559c-2.549,-1.04 -4.721,-2.528 -6.515,-4.465c-1.795,-1.937 -3.176,-4.272 -4.144,-7.007c-0.969,-2.734 -1.453,-5.81 -1.453,-9.228c0,-3.39 0.484,-6.459 1.453,-9.208c0.968,-2.748 2.349,-5.091 4.144,-7.028c1.794,-1.937 3.966,-3.432 6.515,-4.486c2.55,-1.054 5.405,-1.581 8.567,-1.581Zm0,38.624c4.272,0 7.463,-1.432 9.57,-4.294c2.108,-2.863 3.162,-6.858 3.162,-11.985c0,-5.155 -1.054,-9.171 -3.162,-12.048c-2.107,-2.877 -5.298,-4.315 -9.57,-4.315c-2.165,0 -4.045,0.37 -5.64,1.11c-1.595,0.741 -2.927,1.809 -3.995,3.205c-1.068,1.396 -1.865,3.112 -2.392,5.148c-0.527,2.037 -0.791,4.337 -0.791,6.9c0,2.564 0.264,4.857 0.791,6.879c0.527,2.022 1.324,3.724 2.392,5.106c1.068,1.381 2.4,2.442 3.995,3.183c1.595,0.74 3.475,1.111 5.64,1.111Z" style="fill:#00729c;fill-rule:nonzero;"/><path d="M890.883,259.827l0,-36.786l-4.785,-0.556c-0.598,-0.142 -1.09,-0.363 -1.474,-0.662c-0.385,-0.299 -0.577,-0.733 -0.577,-1.303l0,-3.119l6.836,0l0,-4.187c0,-2.478 0.349,-4.678 1.047,-6.601c0.698,-1.923 1.695,-3.546 2.991,-4.871c1.296,-1.324 2.855,-2.328 4.678,-3.012c1.823,-0.683 3.874,-1.025 6.152,-1.025c1.937,0 3.732,0.285 5.384,0.854l-0.171,3.803c-0.029,0.57 -0.271,0.911 -0.726,1.025c-0.456,0.114 -1.097,0.171 -1.923,0.171l-1.325,0c-1.31,0 -2.499,0.171 -3.567,0.513c-1.068,0.342 -1.987,0.897 -2.756,1.666c-0.769,0.769 -1.36,1.78 -1.773,3.034c-0.413,1.253 -0.62,2.805 -0.62,4.657l0,3.973l12.519,0l0,5.512l-12.262,0l0,36.914l-7.648,0Z" style="fill:#00729c;fill-rule:nonzero;"/><path d="M931.087,260.511c-3.418,0 -6.045,-0.954 -7.882,-2.863c-1.838,-1.908 -2.756,-4.657 -2.756,-8.246l0,-26.489l-5.213,0c-0.455,0 -0.84,-0.136 -1.153,-0.406c-0.314,-0.271 -0.47,-0.691 -0.47,-1.261l0,-3.033l7.092,-0.897l1.752,-13.373c0.057,-0.428 0.242,-0.776 0.555,-1.047c0.314,-0.271 0.712,-0.406 1.197,-0.406l3.845,0l0,14.911l12.39,0l0,5.512l-12.39,0l0,25.977c0,1.823 0.441,3.176 1.324,4.059c0.883,0.883 2.023,1.324 3.418,1.324c0.798,0 1.489,-0.107 2.073,-0.32c0.584,-0.214 1.089,-0.449 1.516,-0.705c0.428,-0.257 0.791,-0.492 1.09,-0.705c0.299,-0.214 0.562,-0.321 0.79,-0.321c0.399,0 0.755,0.242 1.068,0.727l2.222,3.631c-1.31,1.225 -2.891,2.186 -4.742,2.884c-1.852,0.698 -3.76,1.047 -5.726,1.047Z" style="fill:#00729c;fill-rule:nonzero;"/><path d="M944.204,216.547l5.982,0c0.626,0 1.139,0.156 1.538,0.47c0.398,0.313 0.669,0.683 0.812,1.111l8.288,27.856c0.228,1.026 0.442,2.016 0.641,2.97c0.199,0.954 0.37,1.915 0.513,2.884c0.228,-0.969 0.484,-1.93 0.769,-2.884c0.285,-0.954 0.584,-1.944 0.897,-2.97l9.143,-28.027c0.143,-0.428 0.392,-0.784 0.748,-1.069c0.356,-0.284 0.805,-0.427 1.346,-0.427l3.29,0c0.569,0 1.039,0.143 1.41,0.427c0.37,0.285 0.626,0.641 0.769,1.069l8.929,28.027c0.314,0.997 0.591,1.98 0.833,2.948c0.242,0.969 0.477,1.923 0.705,2.863c0.143,-0.94 0.328,-1.923 0.556,-2.948c0.228,-1.025 0.47,-1.98 0.726,-2.863l8.46,-27.856c0.142,-0.456 0.413,-0.834 0.811,-1.133c0.399,-0.299 0.869,-0.448 1.41,-0.448l5.726,0l-14.014,43.28l-6.025,0c-0.74,0 -1.253,-0.484 -1.538,-1.452l-9.57,-29.353c-0.228,-0.655 -0.413,-1.317 -0.556,-1.986c-0.142,-0.67 -0.284,-1.332 -0.427,-1.987c-0.142,0.655 -0.285,1.324 -0.427,2.008c-0.142,0.684 -0.328,1.353 -0.555,2.008l-9.699,29.31c-0.313,0.968 -0.897,1.452 -1.752,1.452l-5.725,0l-14.014,-43.28Z" style="fill:#00729c;fill-rule:nonzero;"/><path d="M1047.09,259.827l-3.375,0c-0.74,0 -1.339,-0.114 -1.794,-0.341c-0.456,-0.228 -0.755,-0.713 -0.898,-1.453l-0.854,-4.016c-1.139,1.025 -2.25,1.944 -3.333,2.755c-1.082,0.812 -2.221,1.496 -3.418,2.051c-1.196,0.556 -2.471,0.976 -3.824,1.261c-1.353,0.285 -2.855,0.427 -4.507,0.427c-1.681,0 -3.254,-0.235 -4.721,-0.705c-1.467,-0.47 -2.742,-1.175 -3.824,-2.115c-1.082,-0.94 -1.944,-2.129 -2.585,-3.567c-0.641,-1.439 -0.961,-3.141 -0.961,-5.106c0,-1.709 0.47,-3.354 1.41,-4.935c0.94,-1.581 2.456,-2.984 4.55,-4.208c2.093,-1.225 4.835,-2.229 8.224,-3.012c3.39,-0.784 7.534,-1.232 12.434,-1.346l0,-3.376c0,-3.361 -0.72,-5.903 -2.158,-7.626c-1.439,-1.723 -3.568,-2.585 -6.388,-2.585c-1.851,0 -3.41,0.235 -4.678,0.705c-1.267,0.47 -2.364,0.997 -3.29,1.581c-0.925,0.584 -1.723,1.111 -2.392,1.581c-0.67,0.47 -1.332,0.705 -1.987,0.705c-0.513,0 -0.961,-0.136 -1.346,-0.406c-0.384,-0.271 -0.691,-0.606 -0.919,-1.004l-1.367,-2.436c2.393,-2.307 4.971,-4.03 7.734,-5.169c2.762,-1.14 5.824,-1.709 9.185,-1.709c2.422,0 4.572,0.398 6.452,1.196c1.88,0.797 3.461,1.908 4.742,3.332c1.282,1.425 2.251,3.148 2.906,5.17c0.655,2.023 0.982,4.244 0.982,6.665l0,27.686Zm-19.739,-4.657c1.339,0 2.564,-0.135 3.675,-0.406c1.111,-0.27 2.157,-0.655 3.14,-1.153c0.983,-0.499 1.923,-1.104 2.82,-1.816c0.897,-0.712 1.773,-1.524 2.628,-2.435l0,-9.015c-3.504,0.114 -6.48,0.391 -8.93,0.833c-2.45,0.441 -4.443,1.018 -5.982,1.73c-1.538,0.712 -2.656,1.552 -3.354,2.521c-0.697,0.968 -1.046,2.051 -1.046,3.247c0,1.139 0.185,2.122 0.555,2.948c0.37,0.826 0.869,1.503 1.496,2.03c0.626,0.526 1.367,0.911 2.221,1.153c0.855,0.242 1.78,0.363 2.777,0.363Z" style="fill:#00729c;fill-rule:nonzero;"/><path d="M1058.62,259.827l0,-43.28l4.358,0c0.826,0 1.396,0.156 1.709,0.47c0.314,0.313 0.527,0.854 0.641,1.623l0.513,6.751c1.481,-3.019 3.311,-5.376 5.49,-7.071c2.179,-1.695 4.735,-2.542 7.669,-2.542c1.196,0 2.279,0.135 3.247,0.406c0.969,0.27 1.866,0.648 2.692,1.132l-0.983,5.682c-0.199,0.712 -0.641,1.068 -1.324,1.068c-0.399,0 -1.011,-0.135 -1.837,-0.406c-0.826,-0.27 -1.98,-0.405 -3.461,-0.405c-2.649,0 -4.864,0.769 -6.644,2.307c-1.78,1.538 -3.268,3.774 -4.465,6.708l0,27.557l-7.605,0Z" style="fill:#00729c;fill-rule:nonzero;"/><path d="M1110.19,215.863c2.592,0 4.984,0.434 7.177,1.303c2.194,0.869 4.088,2.122 5.683,3.76c1.595,1.638 2.841,3.66 3.738,6.067c0.898,2.407 1.346,5.148 1.346,8.225c0,1.196 -0.128,1.993 -0.384,2.392c-0.257,0.399 -0.741,0.598 -1.453,0.598l-28.797,0c0.057,2.735 0.427,5.113 1.111,7.135c0.684,2.023 1.624,3.71 2.82,5.063c1.196,1.353 2.62,2.365 4.272,3.034c1.652,0.669 3.504,1.004 5.555,1.004c1.908,0 3.553,-0.221 4.934,-0.662c1.382,-0.442 2.571,-0.919 3.568,-1.432c0.997,-0.512 1.83,-0.989 2.499,-1.431c0.67,-0.441 1.247,-0.662 1.731,-0.662c0.626,0 1.111,0.242 1.452,0.726l2.137,2.777c-0.94,1.14 -2.065,2.129 -3.376,2.97c-1.31,0.84 -2.713,1.531 -4.208,2.072c-1.495,0.541 -3.041,0.947 -4.636,1.218c-1.595,0.27 -3.176,0.405 -4.742,0.405c-2.991,0 -5.747,-0.505 -8.267,-1.516c-2.521,-1.011 -4.7,-2.493 -6.537,-4.444c-1.838,-1.951 -3.269,-4.365 -4.294,-7.242c-1.026,-2.876 -1.538,-6.181 -1.538,-9.912c0,-3.019 0.462,-5.839 1.388,-8.459c0.926,-2.621 2.257,-4.892 3.995,-6.815c1.737,-1.923 3.859,-3.432 6.366,-4.529c2.507,-1.097 5.326,-1.645 8.46,-1.645Zm0.17,5.597c-3.674,0 -6.565,1.061 -8.673,3.183c-2.108,2.122 -3.418,5.063 -3.93,8.823l23.541,0c0,-1.766 -0.242,-3.383 -0.726,-4.849c-0.484,-1.467 -1.196,-2.735 -2.136,-3.803c-0.94,-1.068 -2.087,-1.894 -3.44,-2.478c-1.353,-0.584 -2.898,-0.876 -4.636,-0.876Z" style="fill:#00729c;fill-rule:nonzero;"/></g></g></svg>